HIERARCHY
ROOT SpineBase
{
  OFFSET 0.000000 0.000000 0.000000
  CHANNELS 6 Xposition Yposition Zposition Zrotation Xrotation Yrotation
  JOINT SpineMid
  {
    OFFSET -0.000000 29.339909 0.000000
    CHANNELS 3 Zrotation Xrotation Yrotation
    JOINT SpineShoulder
    {
      OFFSET -0.047947 21.852110 -0.661980
      CHANNELS 3 Zrotation Xrotation Yrotation
      JOINT Neck
      {
        OFFSET -0.039118 7.262080 -0.516470
        CHANNELS 3 Zrotation Xrotation Yrotation
        JOINT Head
        {
          OFFSET -2.609931 14.174454 -1.997978
          CHANNELS 3 Zrotation Xrotation Yrotation
          End Site
          {
            OFFSET 0 0 0
          }
        }
      }
      JOINT ShoulderLeft
      {
        OFFSET -15.568807 -3.526878 7.621511
        CHANNELS 3 Zrotation Xrotation Yrotation
        JOINT ElbowLeft
        {
          OFFSET -2.251513 -25.192952 0.624236
          CHANNELS 3 Zrotation Xrotation Yrotation
          JOINT WristLeft
          {
            OFFSET -1.048551 -20.098561 -6.214087
            CHANNELS 3 Zrotation Xrotation Yrotation
            JOINT HandLeft
            {
              OFFSET 0.762860 -5.070334 -0.781764
              CHANNELS 3 Zrotation Xrotation Yrotation
              JOINT HandTipLeft
              {
                OFFSET 0.699477 -6.489818 -2.160211
                CHANNELS 3 Zrotation Xrotation Yrotation
                End Site
                {
                  OFFSET 0 0 0
                }
              }
              JOINT ThumbLeft
              {
                OFFSET -4.273118 -0.626024 -0.925981
                CHANNELS 3 Zrotation Xrotation Yrotation
                End Site
                {
                  OFFSET 0 0 0
                }
              }
            }
          }
        }
      }
      JOINT ShoulderRight
      {
        OFFSET 13.695533 -1.992529 -7.673092
        CHANNELS 3 Zrotation Xrotation Yrotation
        JOINT ElbowRight
        {
          OFFSET 7.746727 -21.127753 -2.140929
          CHANNELS 3 Zrotation Xrotation Yrotation
          JOINT WristRight
          {
            OFFSET -1.876813 -18.493211 -5.434069
            CHANNELS 3 Zrotation Xrotation Yrotation
            JOINT HandRight
            {
              OFFSET -2.026004 -6.609249 -2.298954
              CHANNELS 3 Zrotation Xrotation Yrotation
              JOINT HandTipRight
              {
                OFFSET -2.481551 -6.969773 -0.170613
                CHANNELS 3 Zrotation Xrotation Yrotation
                End Site
                {
                  OFFSET 0 0 0
                }
              }
              JOINT ThumbRight
              {
                OFFSET -4.354047 0.220011 -1.382082
                CHANNELS 3 Zrotation Xrotation Yrotation
                End Site
                {
                  OFFSET 0 0 0
                }
              }
            }
          }
        }
      }
    }
  }
  JOINT HipLeft
  {
    OFFSET -6.575203 0.628040 -0.929565
    CHANNELS 3 Zrotation Xrotation Yrotation
    JOINT KneeLeft
    {
      OFFSET 1.901208 -26.770331 1.083088
      CHANNELS 3 Zrotation Xrotation Yrotation
      JOINT AnkleLeft
      {
        OFFSET 8.722081 -39.904003 11.228203
        CHANNELS 3 Zrotation Xrotation Yrotation
        JOINT FootLeft
        {
          OFFSET -0.555673 -5.679090 -6.863980
          CHANNELS 3 Zrotation Xrotation Yrotation
          End Site
          {
            OFFSET 0 0 0
          }
        }
      }
    }
  }
  JOINT HipRight
  {
    OFFSET 6.079386 1.756954 -5.505832
    CHANNELS 3 Zrotation Xrotation Yrotation
    JOINT KneeRight
    {
      OFFSET 4.322605 -25.026090 -4.371614
      CHANNELS 3 Zrotation Xrotation Yrotation
      JOINT AnkleRight
      {
        OFFSET 3.693852 -36.857052 5.932739
        CHANNELS 3 Zrotation Xrotation Yrotation
        JOINT FootRight
        {
          OFFSET -4.680456 -2.104771 -12.025707
          CHANNELS 3 Zrotation Xrotation Yrotation
          End Site
          {
            OFFSET 0 0 0
          }
        }
      }
    }
  }
}
MOTION
Frames: 6
Frame Time: 0.033333
21.322418 72.580759 301.663289 -0.696624 -0.506929 36.028006 0.052160 -0.398224 -36.048378 0.142740 -0.207049 -0.012152 12.744460 5.023237 1.838758 0.000000 0.000000 0.000000 2.380071 -1.148306 0.270303 -6.484905 -5.393694 1.448778 -3.561729 6.180452 -0.067653 8.759501 3.787489 -1.095122 0.000000 0.000000 0.000000 0.000000 0.000000 0.000000 -29.810272 61.925952 45.713351 13.528873 43.567690 -34.657632 -8.515463 10.510197 -24.371581 27.394691 48.148738 19.807859 0.000000 0.000000 0.000000 0.000000 0.000000 0.000000 -4.957574 1.141637 -36.369351 9.317032 4.171640 1.509634 -23.188091 6.667129 19.935014 0.000000 0.000000 0.000000 0.557223 -2.479464 -36.627744 2.842288 0.806465 1.018186 0.670367 -12.334594 15.256639 0.000000 0.000000 0.000000
21.509396 72.488195 301.384127 -0.400022 -0.604653 37.074390 -0.046772 -0.371668 -37.087269 0.110301 -0.267242 -0.006396 13.107802 5.695711 1.865782 0.000000 0.000000 0.000000 2.520015 -0.902066 0.254354 -6.430632 -9.063266 1.417967 -0.960474 5.951604 -1.504487 5.370009 4.244465 -0.445049 0.000000 0.000000 0.000000 0.000000 0.000000 0.000000 -45.229955 61.251416 58.092017 5.185196 33.052934 -30.326234 -5.066396 -1.650635 -18.605496 23.029439 45.776799 -3.831356 0.000000 0.000000 0.000000 0.000000 0.000000 0.000000 -5.455954 0.978205 -37.451073 9.023831 4.813837 1.433060 -21.868086 3.336666 19.135825 0.000000 0.000000 0.000000 0.206709 -3.129429 -37.894530 2.120772 1.573628 1.162646 0.686816 -11.814790 14.861906 0.000000 0.000000 0.000000
21.687429 72.468299 301.184316 -0.205067 -0.828331 38.067269 -0.079405 -0.345784 -38.074822 0.094476 -0.335850 -0.001806 13.518291 6.239371 1.850677 0.000000 0.000000 0.000000 2.451283 -0.427228 0.215688 -5.904028 -12.466200 1.351217 2.811371 7.838584 -3.002632 1.715182 2.978017 0.029099 0.000000 0.000000 0.000000 0.000000 0.000000 0.000000 -57.215085 55.928848 64.307051 3.882021 22.632720 -25.813860 0.981350 -4.596578 -13.294058 14.914313 37.163523 -11.966717 0.000000 0.000000 0.000000 0.000000 0.000000 0.000000 -4.999121 1.163657 -38.398361 7.972176 4.432284 1.262095 -21.206583 1.751342 19.510547 0.000000 0.000000 0.000000 0.773379 -2.575555 -38.829555 1.620474 0.676719 1.112925 4.936456 -18.476960 17.234554 0.000000 0.000000 0.000000
21.816019 72.751994 301.025522 -0.112038 -1.124078 39.818158 -0.018600 -0.309970 -39.822186 0.065535 -0.324470 0.001077 14.161694 6.575708 1.852913 0.000000 0.000000 0.000000 2.411290 -0.086009 0.188493 -5.604057 -15.443497 1.358914 7.486659 12.912905 -4.673032 -2.204688 -2.845494 0.018164 0.000000 0.000000 0.000000 0.000000 0.000000 0.000000 -72.382400 50.700257 74.429720 7.232069 6.989514 -24.469007 1.061456 -0.609790 -11.115222 9.883044 27.199154 -13.859535 0.000000 0.000000 0.000000 0.000000 0.000000 0.000000 -3.991003 1.724575 -40.060525 6.719715 3.413626 1.041477 -23.479567 4.419886 22.927569 0.000000 0.000000 0.000000 1.329872 -2.316832 -40.590089 1.129071 -0.090193 1.103763 9.238454 -24.394698 19.452246 0.000000 0.000000 0.000000
22.020423 72.829598 300.747521 0.197030 -1.251199 41.629586 0.023722 -0.318470 -41.619813 0.090426 -0.421224 0.017576 13.165377 6.778477 1.747378 0.000000 0.000000 0.000000 1.878614 0.197570 0.149523 -5.243769 -17.739661 1.394123 15.584869 20.010575 -8.130702 -9.561721 -6.633500 0.371971 0.000000 0.000000 0.000000 0.000000 0.000000 0.000000 -81.347113 46.541017 79.750598 10.475291 -3.501420 -23.939216 0.392072 2.132682 -9.949308 7.043157 20.238173 -14.649392 0.000000 0.000000 0.000000 0.000000 0.000000 0.000000 -3.252322 2.305298 -41.790517 5.548661 2.295070 0.785623 -24.257883 5.812327 24.796993 0.000000 0.000000 0.000000 0.505302 -3.408184 -42.733110 -0.051101 1.423310 1.309398 15.673406 -32.499592 20.689043 0.000000 0.000000 0.000000
22.324932 72.472308 300.480033 0.364851 -1.364577 42.366280 -0.382644 0.034727 -42.359162 -0.400088 -0.469249 -0.029475 16.167220 7.152296 1.888090 0.000000 0.000000 0.000000 2.405501 0.472889 0.177308 -4.711696 -19.319985 1.417127 10.500725 28.692098 -5.276264 -4.955607 -11.375104 -1.282255 0.000000 0.000000 0.000000 0.000000 0.000000 0.000000 -81.707513 46.905652 81.629332 9.840575 -6.782293 -25.050782 -1.707545 2.481474 -10.001767 4.954872 18.129305 -15.556364 0.000000 0.000000 0.000000 0.000000 0.000000 0.000000 -2.969860 2.511498 -42.500004 4.757720 1.712617 0.558126 -24.590551 5.814766 26.171723 0.000000 0.000000 0.000000 -0.493447 -4.549740 -43.816957 -0.992079 3.401225 1.576227 14.764086 -30.617112 20.563150 0.000000 0.000000 0.000000
